<?xml version="1.0" encoding="UTF-8"?>
<!-- Generated by @neplex/vectorizer (Using visioncortex VTracer) -->
<svg version="1.1" xmlns="http://www.w3.org/2000/svg" viewBox="0 0 60 90" width="60" height="90"><g transform="scale(0.25)">
<path d="M0 0 C16.4 -3.69 32.93 -4.65 49.7 -4.61 C51.81 -4.6 53.92 -4.61 56.03 -4.61 C94.16 -4.59 135.1 2.85 163.47 30.42 C205.39 73.47 201.88 161.9 201.81 217.23 C201.81 220.4 201.81 223.56 201.82 226.72 C201.78 371.03 201.78 371.03 163.47 410.37 C134.49 438.54 92.77 445.5 53.92 445.4 C51.81 445.4 49.7 445.4 47.59 445.41 C9.46 445.39 -31.48 437.94 -59.85 410.37 C-101.77 367.32 -98.26 278.89 -98.2 223.56 C-98.19 220.4 -98.2 217.23 -98.2 214.07 C-98.18 132.92 -98 25.81 0 0 Z " fill="#E12525" transform="translate(68.19175243377686,-40.39650321006775)"/>
<path d="M0 0 C16.4 -3.69 32.93 -4.65 49.7 -4.61 C51.81 -4.6 53.92 -4.61 56.03 -4.61 C94.16 -4.59 135.1 2.85 163.47 30.42 C205.39 73.47 201.88 161.9 201.81 217.23 C201.81 220.4 201.81 223.56 201.82 226.72 C201.78 371.03 201.78 371.03 163.47 410.37 C134.49 438.54 92.77 445.5 53.92 445.4 C51.81 445.4 49.7 445.4 47.59 445.41 C9.46 445.39 -31.48 437.94 -59.85 410.37 C-101.77 367.32 -98.26 278.89 -98.2 223.56 C-98.19 220.4 -98.2 217.23 -98.2 214.07 C-98.18 132.92 -98 25.81 0 0 Z M-44.57 70.27 C-45.84 72.33 -45.84 72.33 -47.19 75.4 C-47.52 76.06 -47.85 76.72 -48.19 77.4 C-48.29 78.96 -48.32 80.52 -48.33 82.08 C-48.33 83.08 -48.34 84.07 -48.34 85.1 C-48.34 86.2 -48.35 87.3 -48.35 88.43 C-48.35 89.6 -48.35 90.76 -48.36 91.96 C-48.37 95.2 -48.38 98.44 -48.38 101.68 C-48.39 105.17 -48.4 108.66 -48.41 112.14 C-48.43 120.58 -48.45 129.01 -48.46 137.45 C-48.47 139.83 -48.47 142.21 -48.47 144.59 C-48.5 159.38 -48.52 174.17 -48.53 188.96 C-48.54 192.39 -48.54 195.82 -48.54 199.25 C-48.54 200.52 -48.54 200.52 -48.54 201.83 C-48.56 215.62 -48.59 229.41 -48.63 243.21 C-48.67 257.37 -48.7 271.53 -48.7 285.69 C-48.71 293.64 -48.72 301.59 -48.75 309.54 C-48.78 316.31 -48.79 323.09 -48.78 329.86 C-48.77 333.31 -48.78 336.77 -48.8 340.22 C-48.82 343.97 -48.82 347.72 -48.8 351.47 C-48.81 352.56 -48.83 353.64 -48.84 354.76 C-48.76 362.9 -46.65 368.4 -41.32 374.56 C-34.01 379.75 -26.17 379.23 -17.6 379.14 C-15.93 379.15 -14.25 379.15 -12.58 379.16 C-8.06 379.18 -3.54 379.16 0.99 379.14 C5.73 379.11 10.47 379.12 15.22 379.13 C23.18 379.13 31.14 379.11 39.11 379.07 C48.3 379.03 57.5 379.02 66.69 379.03 C75.55 379.04 84.41 379.03 93.28 379.01 C97.04 379 100.8 379 104.57 379 C109 379.01 113.44 378.99 117.87 378.96 C119.5 378.95 121.12 378.95 122.74 378.95 C134.38 379.05 134.38 379.05 144.81 374.4 C147.18 372.11 147.18 372.11 148.81 369.4 C149.33 368.59 149.85 367.78 150.39 366.95 C152.41 361.89 152.22 357.26 152.19 351.86 C152.2 350.1 152.2 350.1 152.2 348.32 C152.21 345.08 152.21 341.84 152.2 338.61 C152.19 335.12 152.2 331.62 152.21 328.13 C152.23 321.29 152.22 314.45 152.21 307.61 C152.21 302.05 152.21 296.5 152.21 290.94 C152.21 289.75 152.21 289.75 152.21 288.54 C152.21 286.93 152.21 285.32 152.21 283.72 C152.22 268.65 152.21 253.58 152.2 238.5 C152.18 225.57 152.19 212.64 152.2 199.71 C152.22 184.69 152.22 169.68 152.21 154.66 C152.21 153.06 152.21 151.46 152.21 149.86 C152.21 149.07 152.21 148.28 152.21 147.47 C152.21 141.92 152.21 136.37 152.22 130.81 C152.23 124.05 152.22 117.28 152.21 110.52 C152.2 107.06 152.2 103.61 152.21 100.16 C152.21 96.42 152.2 92.68 152.19 88.94 C152.2 87.3 152.2 87.3 152.21 85.63 C152.15 78.55 151.26 74.1 146.37 68.71 C140.85 63.72 137.54 62.28 130.02 62.24 C129.32 62.23 128.63 62.23 127.91 62.22 C125.58 62.2 123.25 62.2 120.91 62.19 C119.24 62.18 117.57 62.17 115.9 62.16 C110.41 62.13 104.92 62.11 99.43 62.09 C98.49 62.08 97.56 62.08 96.59 62.08 C87.78 62.05 78.96 62.02 70.14 62 C58.87 61.98 47.6 61.94 36.32 61.87 C28.4 61.82 20.47 61.8 12.54 61.79 C7.8 61.79 3.07 61.77 -1.66 61.73 C-6.12 61.69 -10.58 61.69 -15.03 61.7 C-16.67 61.7 -18.3 61.69 -19.93 61.67 C-29.63 61.55 -38.29 61.76 -44.57 70.27 Z " fill="#FBFCFA" transform="translate(68.19175243377686,-40.39650321006775)"/>
<path d="M0 0 C1.68 -0 3.35 -0.01 5.03 -0.02 C9.56 -0.03 14.09 -0.01 18.62 0.02 C23.37 0.05 28.12 0.04 32.87 0.04 C40.84 0.04 48.81 0.07 56.78 0.11 C66 0.16 75.21 0.17 84.42 0.17 C94.24 0.17 104.05 0.19 113.87 0.22 C116.7 0.22 119.52 0.23 122.35 0.23 C126.79 0.23 131.23 0.25 135.67 0.28 C137.3 0.29 138.92 0.29 140.55 0.29 C142.78 0.29 145 0.31 147.22 0.33 C149.09 0.34 149.09 0.34 150.99 0.34 C157.33 1.07 161.24 4.03 165.38 8.73 C167.89 12.34 168.75 14.74 168.75 19.13 C168.75 20.19 168.76 21.24 168.77 22.33 C168.75 24.01 168.75 24.01 168.74 25.73 C168.74 27.47 168.74 27.47 168.74 29.24 C168.74 31.67 168.73 34.11 168.71 36.54 C168.69 40.31 168.69 44.07 168.7 47.84 C168.69 50.2 168.69 52.56 168.68 54.92 C168.68 56.06 168.68 57.2 168.68 58.38 C168.67 59.41 168.66 60.43 168.65 61.49 C168.65 62.41 168.64 63.32 168.64 64.27 C168.55 64.75 168.46 65.23 168.38 65.73 C167.44 64.17 167.44 64.17 166.38 61.73 C159.61 47.65 153.27 38.26 138.38 31.73 C117.37 26.69 96.4 32.74 78.37 43.49 C72.81 46.94 67.57 50.75 62.38 54.73 C61.52 55.37 60.65 56 59.77 56.66 C44.82 68.21 31.47 82.48 20.38 97.73 C19.72 98.57 19.07 99.42 18.4 100.29 C9.2 112.41 1.33 125.75 -5.81 139.17 C-6.17 139.85 -6.54 140.52 -6.91 141.22 C-8.43 144.16 -9.67 146.89 -10.57 150.08 C-11.62 152.73 -11.62 152.73 -13.8 153.98 C-14.65 154.23 -15.5 154.47 -16.37 154.73 C-21.57 156.56 -24.36 158.23 -27.62 162.73 C-27.7 166.84 -26.57 169.89 -25 173.6 C-22 181.32 -25.2 189.64 -26.93 197.4 C-27.5 200.14 -27.94 202.82 -28.25 205.6 C-28.37 206.64 -28.5 207.67 -28.62 208.73 C-28.95 208.73 -29.28 208.73 -29.62 208.73 C-29.73 206.27 -29.77 203.83 -29.77 201.37 C-29.77 200.58 -29.78 199.79 -29.78 198.97 C-29.79 196.3 -29.8 193.62 -29.8 190.94 C-29.81 189.03 -29.81 187.12 -29.82 185.21 C-29.84 180 -29.85 174.79 -29.86 169.58 C-29.86 166.33 -29.87 163.08 -29.87 159.83 C-29.89 149.66 -29.91 139.49 -29.92 129.32 C-29.93 117.57 -29.95 105.82 -29.99 94.07 C-30.02 84.99 -30.04 75.92 -30.04 66.85 C-30.04 61.43 -30.05 56 -30.08 50.58 C-30.1 45.48 -30.1 40.37 -30.09 35.27 C-30.09 33.4 -30.1 31.52 -30.11 29.65 C-30.13 27.09 -30.12 24.53 -30.11 21.97 C-30.12 21.24 -30.13 20.5 -30.14 19.74 C-30.07 13.39 -28.07 9.44 -23.85 4.76 C-16.5 -0.63 -8.69 -0.1 0 0 Z " fill="#010000" transform="translate(50.623779296875,21.271240234375)"/>
<path d="M0 0 C0.33 0 0.66 0 1 0 C1.11 2.23 1.14 4.47 1.15 6.7 C1.16 7.79 1.16 7.79 1.17 8.89 C1.18 11.33 1.19 13.77 1.19 16.21 C1.2 17.95 1.21 19.69 1.22 21.43 C1.24 27.18 1.26 32.92 1.27 38.66 C1.28 40.63 1.28 42.6 1.29 44.58 C1.31 52.79 1.33 61 1.34 69.21 C1.36 80.99 1.39 92.76 1.45 104.54 C1.49 112.81 1.51 121.09 1.51 129.36 C1.51 134.3 1.53 139.25 1.56 144.19 C1.59 148.84 1.6 153.5 1.58 158.16 C1.58 159.86 1.59 161.57 1.61 163.27 C1.76 178.82 1.76 178.82 -2.62 184.62 C-7.89 189.89 -12.58 191.12 -19.79 191.16 C-20.49 191.17 -21.18 191.17 -21.9 191.18 C-24.23 191.19 -26.56 191.2 -28.9 191.21 C-30.57 191.22 -32.24 191.23 -33.91 191.24 C-39.4 191.27 -44.89 191.29 -50.38 191.31 C-51.32 191.31 -52.25 191.32 -53.22 191.32 C-62.03 191.35 -70.85 191.38 -79.67 191.39 C-90.94 191.41 -102.21 191.46 -113.48 191.53 C-121.41 191.57 -129.34 191.6 -137.27 191.61 C-142 191.61 -146.74 191.63 -151.47 191.66 C-155.93 191.7 -160.39 191.71 -164.84 191.7 C-166.47 191.7 -168.11 191.71 -169.74 191.73 C-184.88 191.92 -184.88 191.92 -191.32 186.68 C-194.72 183.28 -196.74 180.66 -197.49 175.85 C-197.48 174.73 -197.48 173.6 -197.47 172.44 C-197.47 171.16 -197.48 169.88 -197.48 168.56 C-197.46 167.18 -197.44 165.8 -197.43 164.41 C-197.42 162.99 -197.42 161.56 -197.42 160.14 C-197.41 157.16 -197.39 154.18 -197.36 151.2 C-197.32 147.38 -197.3 143.55 -197.29 139.72 C-197.28 136.08 -197.26 132.43 -197.24 128.79 C-197.23 128.09 -197.23 127.39 -197.23 126.67 C-197.22 124.71 -197.2 122.74 -197.18 120.78 C-197.17 119.66 -197.16 118.54 -197.15 117.39 C-197.1 116.6 -197.05 115.81 -197 115 C-196.67 115 -196.34 115 -196 115 C-195.57 117.03 -195.18 119.08 -194.81 121.12 C-191.81 135.41 -186.15 148.39 -173.81 156.88 C-160.75 164.48 -147.02 165.69 -132.31 162.88 C-99.16 154.12 -70.84 130.51 -50 104 C-49.22 103.04 -48.44 102.07 -47.64 101.08 C-40.84 92.53 -35.01 83.47 -29.32 74.15 C-28.2 72.32 -27.06 70.5 -25.93 68.68 C-22.23 62.59 -19.32 56.34 -16.56 49.79 C-14.91 45.91 -13.11 42.37 -10.81 38.81 C-6.15 31.41 -3.94 23.01 -3.28 14.34 C-2.7 9.48 -1.45 4.67 0 0 Z " fill="#010000" transform="translate(218,147)"/>
<path d="M0 0 C0.33 0 0.66 0 1 0 C1.1 2.39 1.14 4.75 1.13 7.14 C1.13 7.91 1.14 8.67 1.14 9.46 C1.14 12.06 1.14 14.66 1.14 17.25 C1.14 19.1 1.15 20.95 1.15 22.8 C1.16 26.8 1.17 30.79 1.17 34.78 C1.17 41.06 1.19 47.35 1.21 53.63 C1.22 55.77 1.22 57.92 1.23 60.06 C1.23 61.13 1.24 62.21 1.24 63.31 C1.28 77.96 1.31 92.6 1.33 107.24 C1.33 117.1 1.36 126.97 1.4 136.83 C1.42 142.06 1.43 147.3 1.42 152.54 C1.42 157.44 1.43 162.34 1.46 167.24 C1.47 169.06 1.47 170.89 1.46 172.71 C1.46 173.59 1.45 174.47 1.45 175.37 C1.45 176.15 1.44 176.93 1.44 177.73 C1.49 180.18 1.63 182.57 2 185 C3.01 181.72 3.74 178.44 4.43 175.08 C4.6 174.24 4.77 173.4 4.95 172.54 C5.1 171.75 5.26 170.96 5.41 170.14 C6 168 6 168 8 165 C8.97 166.83 8.97 166.83 9.99 169.89 C10.37 171 10.74 172.1 11.13 173.23 C11.52 174.41 11.91 175.6 12.31 176.81 C16.26 188.71 19.62 197.97 30.7 204.62 C34.54 206.23 37.84 206.41 41.94 206.31 C42.61 206.32 43.29 206.32 43.99 206.32 C52.19 206.24 59.38 203.75 66 199 C68.68 196.25 71.25 193.45 73.74 190.52 C74.48 190.02 75.23 189.52 76 189 C77.98 191.29 77.98 191.29 80 194 C82.43 194.07 82.43 194.07 85 193 C86.65 192.51 86.65 192.51 88.34 192.02 C98.04 188.95 98.04 188.95 105 182 C105 178.51 104.4 175.97 103.08 172.75 C102.25 170.62 102.25 170.62 102 168 C107 170.29 111.47 173.68 115.61 177.26 C118.23 179.17 119.05 179.47 122.19 179 C131.27 177.47 131.27 177.47 138.33 172.18 C138.72 171.54 139.1 170.91 139.5 170.25 C140.86 168.4 140.86 168.4 143 167 C146.76 166.71 150.35 166.76 154.11 166.91 C165.2 167.29 172.85 163.39 181 156 C182.07 154.91 183.14 153.8 184.19 152.69 C184.79 152.13 185.38 151.57 186 151 C184.71 155.72 182.64 160.03 180.44 164.38 C180.09 165.07 179.73 165.76 179.37 166.48 C156.22 211.83 120.66 255.49 71.02 272.36 C56.28 277.02 40.94 276.35 27.06 269.56 C14.87 262.51 8.57 251.89 4 239 C3.65 237.53 3.3 236.06 2.95 234.59 C2.64 233.74 2.32 232.88 2 232 C1.49 235.67 1.65 239.43 1.62 243.13 C1.6 244.34 1.59 245.55 1.57 246.79 C1.52 250.04 1.49 253.3 1.46 256.55 C1.41 261.12 1.36 265.69 1.29 270.26 C1.26 272.7 1.24 275.14 1.21 277.59 C1.2 278.69 1.19 279.79 1.17 280.93 C1.16 281.91 1.15 282.89 1.14 283.9 C1.1 284.59 1.05 285.29 1 286 C0.67 286 0.34 286 0 286 C-0.1 284.51 -0.13 283.02 -0.13 281.53 C-0.13 280.54 -0.13 279.54 -0.13 278.51 C-0.13 276.85 -0.13 276.85 -0.13 275.14 C-0.13 273.97 -0.13 272.81 -0.13 271.6 C-0.14 268.34 -0.13 265.08 -0.13 261.82 C-0.13 258.31 -0.13 254.8 -0.13 251.29 C-0.14 244.41 -0.14 237.53 -0.14 230.65 C-0.13 225.06 -0.13 219.47 -0.13 213.88 C-0.13 213.08 -0.13 212.29 -0.13 211.47 C-0.13 209.86 -0.13 208.25 -0.14 206.63 C-0.14 191.49 -0.13 176.36 -0.13 161.22 C-0.12 148.21 -0.13 135.2 -0.13 122.19 C-0.14 107.11 -0.14 92.03 -0.13 76.94 C-0.13 75.34 -0.13 73.73 -0.13 72.12 C-0.13 70.94 -0.13 70.94 -0.13 69.73 C-0.13 64.14 -0.13 58.55 -0.14 52.97 C-0.14 46.16 -0.14 39.36 -0.13 32.56 C-0.13 29.08 -0.13 25.6 -0.13 22.13 C-0.14 18.37 -0.13 14.61 -0.13 10.86 C-0.13 9.74 -0.13 8.63 -0.13 7.49 C-0.13 6.49 -0.13 5.49 -0.13 4.47 C-0.13 3.6 -0.13 2.73 -0.13 1.83 C-0.08 1.23 -0.04 0.62 0 0 Z " fill="#E02525" transform="translate(20,37)"/>
<path d="M0 0 C16.4 -3.69 32.93 -4.65 49.7 -4.61 C51.81 -4.6 53.92 -4.61 56.03 -4.61 C94.16 -4.59 135.1 2.85 163.47 30.42 C205.39 73.47 201.88 161.9 201.81 217.23 C201.81 220.4 201.81 223.56 201.82 226.72 C201.78 371.03 201.78 371.03 163.47 410.37 C134.49 438.54 92.77 445.5 53.92 445.4 C51.81 445.4 49.7 445.4 47.59 445.41 C9.46 445.39 -31.48 437.94 -59.85 410.37 C-101.77 367.32 -98.26 278.89 -98.2 223.56 C-98.19 220.4 -98.2 217.23 -98.2 214.07 C-98.18 132.92 -98 25.81 0 0 Z M-44.61 70.27 C-46.04 72.62 -47.19 74.59 -47.19 77.4 C-47.85 77.4 -48.51 77.4 -49.19 77.4 C-49.4 79.79 -49.4 79.79 -49.21 82.81 C-49.17 83.99 -49.13 85.17 -49.08 86.39 C-49.03 87.68 -48.98 88.97 -48.93 90.3 C-48.86 92.99 -48.79 95.68 -48.73 98.37 C-48.63 102.64 -48.51 106.92 -48.32 111.19 C-48.2 113.97 -48.11 116.74 -48.06 119.52 C-48.02 122.15 -47.92 124.78 -47.77 127.4 C-47.73 133.48 -47.73 133.48 -49.19 136.4 C-53.65 137.54 -57.67 136.95 -62.19 136.4 C-64.02 138.23 -63.42 141.15 -63.5 143.61 C-63.52 144.27 -63.54 144.93 -63.56 145.61 C-63.62 147.85 -63.68 150.09 -63.73 152.33 C-63.76 153.51 -63.76 153.51 -63.8 154.72 C-64.7 189.68 -64.57 224.67 -64.64 259.65 C-64.66 273.47 -64.72 287.3 -64.8 301.13 C-64.85 310.93 -64.88 320.73 -64.89 330.53 C-64.9 336.36 -64.92 342.19 -64.96 348.02 C-65.01 353.47 -65.02 358.93 -65 364.38 C-65 366.38 -65.01 368.37 -65.04 370.37 C-65.64 382.18 -65.64 382.18 -60.89 392.52 C-59.14 394.18 -59.14 394.18 -57.19 395.4 C-56.35 395.97 -56.35 395.97 -55.49 396.56 C-51.98 397.84 -48.47 397.68 -44.78 397.66 C-43.92 397.67 -43.07 397.67 -42.18 397.68 C-39.31 397.69 -36.43 397.69 -33.56 397.69 C-31.5 397.69 -29.44 397.7 -27.38 397.71 C-21.78 397.73 -16.18 397.73 -10.58 397.73 C-5.91 397.73 -1.23 397.74 3.44 397.75 C14.46 397.76 25.48 397.77 36.5 397.77 C47.88 397.77 59.25 397.79 70.63 397.82 C80.39 397.84 90.15 397.86 99.91 397.85 C105.74 397.85 111.57 397.86 117.4 397.88 C122.89 397.9 128.37 397.9 133.86 397.89 C135.87 397.88 137.88 397.89 139.9 397.9 C142.65 397.92 145.39 397.91 148.14 397.89 C149.34 397.91 149.34 397.91 150.56 397.92 C157.28 397.84 160.61 395.32 165.65 390.91 C169.21 386.33 168.48 380.67 168.42 375.13 C168.42 373.89 168.43 372.64 168.43 371.36 C168.44 367.9 168.43 364.45 168.4 361 C168.38 357.27 168.39 353.55 168.4 349.82 C168.41 342.53 168.39 335.23 168.36 327.94 C168.33 319.45 168.32 310.96 168.32 302.47 C168.31 287.34 168.28 272.2 168.24 257.06 C168.2 242.36 168.17 227.65 168.16 212.95 C168.16 212.04 168.16 211.14 168.16 210.2 C168.15 206.56 168.15 202.92 168.15 199.27 C168.13 183.59 168.11 167.9 168.09 152.22 C168.08 149.67 168.08 147.13 168.07 144.59 C168.06 135.68 168.05 126.78 168.02 117.88 C168.01 114.2 168 110.52 167.99 106.84 C167.99 102.86 167.98 98.88 167.96 94.9 C167.96 93.72 167.96 92.54 167.96 91.33 C167.96 90.27 167.95 89.21 167.95 88.13 C167.94 87.21 167.94 86.29 167.94 85.34 C167.87 84.38 167.87 84.38 167.81 83.4 C167.48 83.4 167.15 83.4 166.81 83.4 C166.88 84.12 166.95 84.84 167.03 85.58 C167.31 88.39 167.5 90.65 166.81 93.4 C164.32 94.19 162.45 93.97 159.87 93.65 C159.19 93.57 158.51 93.48 157.81 93.4 C156.58 94.39 156.58 94.39 156.78 96.37 C156.81 97.25 156.84 98.12 156.87 99.02 C156.95 105.14 156.11 110.99 155.15 117.01 C154.83 120.16 155.17 122.35 155.81 125.4 C155.15 125.4 154.49 125.4 153.81 125.4 C152.5 131.27 152.73 137.15 152.86 143.14 C152.89 144.66 152.89 144.66 152.92 146.21 C152.96 148.33 153 150.45 153.05 152.58 C153.12 155.85 153.18 159.12 153.23 162.39 C153.27 164.45 153.31 166.52 153.36 168.58 C153.37 169.56 153.39 170.55 153.4 171.56 C153.43 172.46 153.45 173.36 153.47 174.28 C153.5 175.48 153.5 175.48 153.52 176.7 C153.62 177.26 153.71 177.82 153.81 178.4 C154.47 178.4 155.13 178.4 155.81 178.4 C156.07 180.8 156.07 180.8 156.06 183.9 C156.07 185.43 156.07 185.43 156.07 186.99 C155.99 187.78 155.9 188.58 155.81 189.4 C155.15 189.4 154.49 189.4 153.81 189.4 C153.81 187.73 153.81 186.06 153.81 184.4 C153.15 184.4 152.49 184.4 151.81 184.4 C151.57 182.74 151.57 182.74 151.59 180.37 C151.59 179.48 151.59 178.59 151.59 177.67 C151.6 176.68 151.62 175.69 151.63 174.67 C151.63 173.64 151.64 172.6 151.64 171.54 C151.65 169.28 151.67 167.02 151.69 164.76 C151.72 161.19 151.74 157.62 151.75 154.05 C151.79 143.89 151.85 133.73 151.92 123.56 C151.97 117.36 152 111.15 152.02 104.95 C152.03 102.58 152.04 100.21 152.06 97.85 C152.1 94.53 152.11 91.22 152.12 87.9 C152.13 86.92 152.14 85.94 152.16 84.93 C152.15 78.14 151.06 73.88 146.37 68.71 C140.85 63.72 137.54 62.28 130.02 62.24 C129.32 62.23 128.63 62.23 127.91 62.22 C125.58 62.2 123.25 62.2 120.91 62.19 C119.24 62.18 117.57 62.17 115.9 62.16 C110.41 62.13 104.92 62.11 99.43 62.09 C98.49 62.08 97.56 62.08 96.59 62.08 C87.78 62.05 78.96 62.02 70.14 62 C58.87 61.98 47.6 61.94 36.32 61.87 C28.4 61.82 20.47 61.8 12.54 61.79 C7.8 61.79 3.07 61.77 -1.66 61.73 C-6.12 61.69 -10.58 61.69 -15.03 61.7 C-16.67 61.7 -18.3 61.69 -19.93 61.67 C-29.7 61.55 -38.21 61.82 -44.61 70.27 Z " fill="#F9F9F8" transform="translate(68.19175243377686,-40.39650321006775)"/>
<path d="M0 0 C6.93 5.36 10.94 13.29 12.9 21.68 C13.83 32.29 13.58 41.63 6.88 50.3 C4.64 52.87 2.32 55.29 -0.1 57.68 C-0.69 58.28 -1.28 58.88 -1.89 59.5 C-9.71 66.88 -18.14 68.25 -28.65 68.05 C-31.77 67.72 -33.78 67.21 -36.54 65.81 C-37.38 65.44 -38.23 65.07 -39.1 64.68 C-39.36 67.35 -39.36 67.35 -39.1 70.68 C-41.72 75.93 -46.12 77.14 -51.35 78.98 C-55.06 79.93 -57.8 80.38 -61.26 78.52 C-61.96 77.99 -62.66 77.46 -63.39 76.91 C-64.16 76.33 -64.94 75.76 -65.74 75.16 C-66.54 74.55 -67.34 73.94 -68.16 73.31 C-69.76 72.11 -71.35 70.92 -72.95 69.72 C-73.65 69.19 -74.35 68.65 -75.07 68.1 C-77.03 66.73 -78.84 65.49 -81.1 64.68 C-80.04 68.3 -78.68 71.7 -77.25 75.19 C-76.81 76.34 -76.81 76.34 -76.36 77.5 C-76.07 78.21 -75.78 78.91 -75.49 79.64 C-74.98 82.33 -75.63 83.42 -77.1 85.68 C-82.47 90.78 -89.73 94.01 -97.1 94.68 C-99.16 92.19 -99.38 90.23 -99.78 87.05 C-99.88 86.27 -99.99 85.49 -100.1 84.68 C-100.76 84.68 -101.42 84.68 -102.1 84.68 C-102.33 85.34 -102.56 86 -102.79 86.68 C-106.47 95.09 -114.71 102.15 -123.16 105.56 C-131.47 107.93 -140.96 108.45 -148.66 104.18 C-156.12 99.4 -159.96 91.61 -162.79 83.51 C-163.09 82.67 -163.39 81.82 -163.71 80.95 C-164.34 79.18 -164.97 77.41 -165.59 75.64 C-166.54 72.92 -167.52 70.21 -168.51 67.51 C-169.12 65.78 -169.74 64.05 -170.35 62.32 C-170.64 61.52 -170.93 60.71 -171.23 59.88 C-171.5 59.12 -171.76 58.37 -172.03 57.59 C-172.26 56.93 -172.49 56.27 -172.73 55.59 C-173.18 53.26 -172.93 51.9 -172.1 49.68 C-167 44.31 -159.94 40.91 -152.47 40.56 C-149.67 41.89 -149.48 42.48 -148.33 45.27 C-147.77 46.86 -147.24 48.46 -146.73 50.06 C-146.13 51.79 -145.53 53.51 -144.93 55.24 C-144.63 56.13 -144.33 57.03 -144.02 57.95 C-142.53 62.38 -140.98 66.78 -139.41 71.18 C-139.14 71.99 -138.87 72.8 -138.59 73.63 C-136.66 79.17 -136.66 79.17 -132.1 82.68 C-128.99 82.93 -126.91 83.09 -124.1 81.68 C-123.64 76.36 -124.65 72.25 -126.41 67.25 C-126.76 66.25 -126.76 66.25 -127.11 65.24 C-128.25 61.99 -129.43 58.77 -130.66 55.56 C-130.88 54.97 -131.1 54.38 -131.32 53.78 C-131.98 52.02 -132.66 50.27 -133.35 48.53 C-133.97 46.81 -133.97 46.81 -134.6 45.06 C-135 43.99 -135.41 42.93 -135.82 41.83 C-136.1 38.68 -136.1 38.68 -134.21 35.48 C-130.97 32.11 -127.31 30.88 -122.91 29.56 C-121.39 29.06 -119.87 28.57 -118.35 28.07 C-117.62 27.84 -116.89 27.6 -116.13 27.36 C-112.8 26.25 -109.59 24.86 -106.38 23.45 C-103.15 22.36 -100.53 21.78 -97.1 21.68 C-94.45 23.13 -92.42 24.45 -90.1 26.31 C-89.52 26.75 -88.95 27.19 -88.35 27.64 C-85.88 29.53 -83.42 31.43 -81.01 33.39 C-78.92 35.1 -78.92 35.1 -76.1 36.68 C-77.03 33.3 -78.47 30.3 -79.98 27.14 C-80.93 24.96 -81.69 23.03 -82.1 20.68 C-79.38 14.78 -75.82 12.98 -70.1 10.68 C-69.25 10.27 -68.41 9.85 -67.54 9.42 C-62.92 7.46 -62.92 7.46 -60.1 7.68 C-58.43 10.35 -57.44 13.06 -56.3 15.99 C-55.91 16.55 -55.51 17.11 -55.1 17.68 C-52.72 15.75 -51.48 13.34 -49.93 10.71 C-44.87 2.32 -37.22 -3.24 -27.8 -5.77 C-17.41 -7.88 -8.95 -5.6 0 0 Z " fill="#0F0F0F" transform="translate(198.1015625,134.31640625)"/>
<path d="M0 0 C16.4 -3.69 32.93 -4.65 49.7 -4.61 C51.81 -4.6 53.92 -4.61 56.03 -4.61 C94.16 -4.59 135.1 2.85 163.47 30.42 C205.39 73.47 201.88 161.9 201.81 217.23 C201.81 220.4 201.81 223.56 201.82 226.72 C201.78 371.03 201.78 371.03 163.47 410.37 C134.49 438.54 92.77 445.5 53.92 445.4 C51.81 445.4 49.7 445.4 47.59 445.41 C9.46 445.39 -31.48 437.94 -59.85 410.37 C-101.77 367.32 -98.26 278.89 -98.2 223.56 C-98.19 220.4 -98.2 217.23 -98.2 214.07 C-98.18 132.92 -98 25.81 0 0 Z M-64.19 53.4 C-65.49 55.99 -65.32 57.86 -65.32 60.76 C-65.33 61.91 -65.33 63.06 -65.33 64.24 C-65.33 65.51 -65.33 66.78 -65.33 68.09 C-65.33 69.44 -65.34 70.8 -65.34 72.15 C-65.35 75.89 -65.35 79.62 -65.35 83.36 C-65.35 87.38 -65.36 91.4 -65.37 95.43 C-65.38 104.23 -65.39 113.03 -65.39 121.84 C-65.39 127.33 -65.4 132.83 -65.4 138.32 C-65.42 153.53 -65.43 168.73 -65.43 183.94 C-65.43 184.91 -65.43 185.89 -65.43 186.89 C-65.43 187.87 -65.43 188.84 -65.43 189.85 C-65.43 191.83 -65.43 193.8 -65.43 195.78 C-65.43 196.76 -65.43 197.74 -65.43 198.76 C-65.44 214.66 -65.45 230.56 -65.48 246.46 C-65.5 262.77 -65.51 279.09 -65.51 295.4 C-65.52 304.57 -65.52 313.73 -65.54 322.89 C-65.55 330.7 -65.56 338.5 -65.55 346.3 C-65.55 350.29 -65.55 354.27 -65.56 358.25 C-65.58 361.9 -65.57 365.54 -65.56 369.19 C-65.56 371.13 -65.57 373.08 -65.58 375.02 C-65.54 381.89 -65.36 387.03 -60.44 392.26 C-59.84 392.74 -59.24 393.22 -58.63 393.71 C-58.03 394.2 -57.43 394.69 -56.81 395.2 C-53.08 397.96 -49.49 397.54 -45.02 397.54 C-43.74 397.55 -43.74 397.55 -42.43 397.55 C-39.55 397.57 -36.66 397.57 -33.78 397.57 C-31.72 397.58 -29.66 397.59 -27.6 397.59 C-22 397.61 -16.39 397.62 -10.78 397.63 C-7.28 397.63 -3.78 397.64 -0.28 397.65 C10.67 397.67 21.62 397.68 32.57 397.69 C45.22 397.7 57.87 397.72 70.52 397.77 C80.29 397.8 90.06 397.81 99.83 397.81 C105.67 397.82 111.51 397.82 117.34 397.85 C122.84 397.87 128.33 397.88 133.82 397.87 C135.84 397.87 137.85 397.87 139.87 397.89 C142.62 397.9 145.38 397.9 148.13 397.88 C148.93 397.9 149.72 397.91 150.55 397.92 C156.53 397.85 160.09 396.03 164.45 391.8 C168 387.35 168.93 384.51 168.94 378.91 C168.95 377.18 168.95 377.18 168.96 375.43 C168.96 374.16 168.96 372.89 168.96 371.59 C168.96 370.23 168.96 368.88 168.97 367.52 C168.98 363.79 168.98 360.05 168.98 356.32 C168.99 352.3 169 348.28 169.01 344.25 C169.02 334.54 169.03 324.82 169.04 315.1 C169.05 310.53 169.05 305.95 169.06 301.38 C169.08 286.18 169.09 270.97 169.1 255.77 C169.1 251.83 169.1 247.88 169.1 243.94 C169.1 242.96 169.1 241.97 169.1 240.96 C169.11 225.07 169.14 209.18 169.17 193.28 C169.2 176.97 169.22 160.66 169.23 144.35 C169.23 135.19 169.24 126.03 169.26 116.87 C169.28 109.07 169.29 101.27 169.28 93.47 C169.28 89.49 169.28 85.51 169.3 81.53 C169.32 77.88 169.32 74.24 169.3 70.6 C169.3 68.65 169.31 66.71 169.33 64.77 C169.27 57.08 168.64 53.25 163.18 47.75 C158 43.7 155.08 43.25 148.64 43.25 C147.78 43.25 146.93 43.24 146.04 43.24 C143.16 43.23 140.28 43.22 137.4 43.22 C135.34 43.21 133.28 43.21 131.22 43.2 C125.61 43.18 120.01 43.17 114.4 43.16 C110.9 43.16 107.4 43.15 103.89 43.15 C92.95 43.13 82 43.11 71.05 43.1 C58.4 43.09 45.75 43.07 33.1 43.03 C23.33 43 13.56 42.98 3.79 42.98 C-2.05 42.98 -7.89 42.97 -13.73 42.94 C-19.22 42.92 -24.71 42.92 -30.21 42.93 C-32.22 42.93 -34.24 42.92 -36.25 42.91 C-39.01 42.89 -41.76 42.9 -44.51 42.91 C-45.31 42.9 -46.11 42.89 -46.93 42.88 C-55.1 42.97 -59.45 47.16 -64.19 53.4 Z " fill="#1A1B1A" transform="translate(68.19175243377686,-40.39650321006775)"/>
<path d="M0 0 C8.69 5.21 13.47 12.58 16.5 22.06 C17 23.55 17 23.55 17.5 25.06 C18.49 35.7 16.6 43.67 9.75 51.94 C4.22 57.78 -1.87 60.69 -9.86 61.34 C-20.25 61.61 -26.46 59.9 -34.25 52.88 C-41.76 44.91 -43.85 35.98 -43.7 25.38 C-43.11 15.59 -38.74 9.55 -31.5 3.06 C-22.84 -3.64 -9.95 -4.41 0 0 Z " fill="#F4D633" transform="translate(191.5,132.9375)"/>
<path d="M0 0 C1.12 1.73 1.12 1.73 2.01 4.2 C2.35 5.13 2.69 6.05 3.05 7.01 C3.58 8.55 3.58 8.55 4.12 10.12 C4.5 11.18 4.88 12.23 5.27 13.31 C6.54 16.87 7.77 20.43 9 24 C9.23 24.66 9.45 25.32 9.69 25.99 C11.33 30.76 12.95 35.53 14.56 40.31 C14.79 40.97 15.01 41.64 15.24 42.32 C15.88 44.21 16.5 46.1 17.13 47.99 C17.67 49.62 17.67 49.62 18.22 51.29 C19 54 19 54 19 57 C14.89 59.17 11.7 60.67 7 60 C4.58 58.47 2.42 56.95 0.19 55.19 C-1.14 54.18 -2.46 53.17 -3.79 52.17 C-4.48 51.65 -5.17 51.12 -5.87 50.59 C-9.39 47.96 -13 45.48 -16.62 43 C-17.29 42.54 -17.95 42.09 -18.63 41.62 C-20.41 40.4 -22.19 39.18 -24 38 C-24.93 37.34 -25.86 36.68 -26.82 36.01 C-27.54 35.67 -28.26 35.34 -29 35 C-28.7 37.4 -28.7 37.4 -27.34 40.59 C-27.11 41.2 -26.88 41.8 -26.65 42.43 C-25.91 44.42 -25.14 46.4 -24.38 48.38 C-23.63 50.32 -22.89 52.26 -22.17 54.21 C-21.49 56.01 -20.8 57.8 -20.11 59.59 C-18.97 63.1 -18.26 66.31 -18 70 C-20.02 71.56 -20.02 71.56 -22.81 72.44 C-23.73 72.75 -24.64 73.05 -25.58 73.37 C-28 74 -28 74 -30 74 C-30.8 72.36 -30.8 72.36 -31.64 69.87 C-31.99 68.87 -32.34 67.86 -32.69 66.82 C-32.9 66.23 -33.1 65.64 -33.3 65.03 C-34.4 61.82 -35.55 58.64 -36.68 55.45 C-38.03 51.64 -39.37 47.83 -40.71 44.02 C-41.41 42.03 -42.11 40.05 -42.81 38.07 C-43.83 35.18 -44.85 32.3 -45.86 29.41 C-46.33 28.08 -46.33 28.08 -46.82 26.73 C-47.25 25.49 -47.25 25.49 -47.69 24.23 C-48.07 23.14 -48.07 23.14 -48.46 22.04 C-49 20 -49 20 -49 16 C-47.43 14.95 -47.43 14.95 -45.31 14.25 C-44.63 14.01 -43.94 13.77 -43.24 13.52 C-40.54 12.89 -38.77 12.6 -36 13 C-33.5 14.59 -31.25 16.18 -28.94 18 C-27.6 19.02 -26.27 20.03 -24.93 21.04 C-24.27 21.54 -23.61 22.05 -22.93 22.56 C-19.32 25.25 -15.55 27.69 -11.78 30.15 C-9 32 -9 32 -6.94 33.84 C-4.88 35.78 -4.88 35.78 -2 37 C-2.81 32.02 -4.82 27.28 -6.56 22.56 C-7.33 20.43 -8.09 18.3 -8.84 16.17 C-9.32 14.83 -9.8 13.49 -10.3 12.16 C-11.49 8.85 -12 6.58 -12 3 C-10.39 1.95 -10.39 1.95 -8.25 1.25 C-7.55 1.01 -6.86 0.77 -6.14 0.52 C-4 0 -4 0 0 0 Z " fill="#F4D632" transform="translate(137,146)"/>
<path d="M0 0 C9.5 5.32 16.64 12.85 20.24 23.25 C22.52 32.3 22.95 44.14 18.37 52.48 C17.99 53.07 17.62 53.65 17.24 54.25 C16.64 55.26 16.04 56.28 15.43 57.32 C8.15 67.08 0.58 74.74 -11.76 77.25 C-14.87 77.33 -17.97 77.2 -21.07 77.07 C-26.7 76.66 -26.7 76.66 -31.79 78.62 C-33.1 80.43 -33.1 80.43 -34.22 82.36 C-38.11 87.13 -45.81 88.74 -51.66 89.76 C-56.37 88.99 -59.22 86.17 -62.82 83.19 C-65.1 81.42 -67.33 79.81 -69.76 78.25 C-69.31 81.71 -69.31 81.71 -67.85 84.41 C-66.61 87.66 -66.6 89.01 -67.76 92.25 C-72.89 99.24 -81.61 102.33 -89.76 104.25 C-92 104.13 -92 104.13 -93.76 103.25 C-94.23 102.47 -94.71 101.69 -95.19 100.88 C-95.97 100.08 -95.97 100.08 -96.76 99.25 C-98.8 100.83 -100.22 102.26 -101.89 104.19 C-109.24 112.12 -115.59 115.73 -126.53 116.53 C-136.01 116.86 -142.32 115.94 -149.64 109.63 C-158.41 100.81 -161.55 87.25 -165.57 75.82 C-165.97 74.69 -166.37 73.56 -166.78 72.4 C-171.67 58.22 -171.67 58.22 -169.82 54.21 C-163.6 48.13 -155.33 44.89 -146.71 43.91 C-145.74 44.02 -144.77 44.14 -143.76 44.25 C-142.22 46.23 -142.22 46.23 -141.14 48.99 C-140.74 49.99 -140.33 51 -139.92 52.04 C-137.7 58.2 -135.67 64.4 -133.71 70.64 C-131.9 76.27 -130.11 81.36 -126.76 86.25 C-124.03 87.51 -124.03 87.51 -121.76 86.25 C-122.07 80.35 -123.58 75.26 -125.64 69.75 C-125.89 69.05 -126.15 68.34 -126.41 67.61 C-127.19 65.49 -127.97 63.37 -128.76 61.25 C-129.03 60.52 -129.3 59.79 -129.58 59.04 C-130.65 56.18 -131.72 53.35 -132.95 50.57 C-133.96 47.69 -134.41 46.28 -133.76 43.25 C-129.01 36.18 -121.48 33.66 -113.8 30.97 C-111.76 30.25 -109.73 29.5 -107.7 28.73 C-106.39 28.26 -105.08 27.79 -103.76 27.32 C-102.59 26.89 -101.41 26.47 -100.2 26.04 C-95.67 25.01 -91.9 25.15 -87.73 27.3 C-86.94 27.93 -86.94 27.93 -86.13 28.57 C-85.55 29 -84.97 29.44 -84.38 29.88 C-83.18 30.83 -81.98 31.77 -80.78 32.72 C-79.03 34.1 -79.03 34.1 -76.76 35.25 C-77.44 33.57 -78.16 31.9 -78.94 30.27 C-80.06 27.53 -79.83 25.99 -78.76 23.25 C-73.54 16.15 -64.95 13.44 -56.76 11.25 C-55.44 11.25 -54.12 11.25 -52.76 11.25 C-50.57 14.54 -50.76 15.51 -50.76 19.25 C-50.1 19.25 -49.44 19.25 -48.76 19.25 C-48.35 18.17 -48.35 18.17 -47.92 17.07 C-44.55 8.88 -35.73 2.64 -27.76 -0.75 C-18.76 -4.23 -8.77 -4.12 0 0 Z M-45.04 17.04 C-46.9 19.3 -46.9 19.3 -48.38 22.34 C-48.84 22.97 -49.29 23.6 -49.76 24.25 C-50.62 22.38 -50.62 22.38 -51.51 19.25 C-52.6 16.28 -52.6 16.28 -54.76 14.25 C-62.16 14.87 -69.37 18.15 -74.76 23.25 C-76.08 25.08 -76.08 25.08 -76.76 27.25 C-76.27 29.4 -76.27 29.4 -75.15 31.5 C-74.8 32.26 -74.45 33.02 -74.09 33.81 C-73.73 34.57 -73.38 35.34 -73.01 36.13 C-71.96 38.59 -71.24 40.61 -70.76 43.25 C-76.7 40.84 -81.74 35.85 -86.57 31.7 C-87.43 31.01 -87.43 31.01 -88.31 30.3 C-88.81 29.88 -89.31 29.46 -89.82 29.03 C-96.51 26.36 -106.08 31.63 -112.39 33.94 C-113.6 34.36 -114.82 34.79 -116.07 35.22 C-123.17 37.7 -123.17 37.7 -129.25 41.98 C-131.52 46.89 -130.1 50.08 -128.32 55 C-128.03 55.89 -127.73 56.79 -127.43 57.7 C-125.43 63.64 -123.23 69.5 -120.76 75.25 C-118.99 79.77 -118.38 83.39 -118.76 88.25 C-121.65 89.7 -123.56 89.63 -126.76 89.25 C-131.23 85.63 -133.07 81.77 -134.8 76.43 C-135.06 75.69 -135.31 74.95 -135.58 74.19 C-136.38 71.84 -137.17 69.49 -137.95 67.13 C-138.75 64.77 -139.55 62.41 -140.35 60.05 C-140.85 58.58 -141.35 57.12 -141.83 55.65 C-142.89 52.52 -143.92 50.02 -145.76 47.25 C-152.76 47.4 -160.66 50.02 -165.95 54.69 C-168.02 57.03 -168.02 57.03 -167.54 59.4 C-165.83 65.67 -163.64 71.8 -161.52 77.94 C-160.93 79.64 -160.36 81.34 -159.79 83.04 C-156.07 94.18 -152.71 104.21 -142.76 111.32 C-134.9 115.18 -125.13 114.32 -116.95 111.82 C-108.32 108.19 -101.59 101.14 -96.76 93.25 C-96.76 92.59 -96.76 91.93 -96.76 91.25 C-96.1 91.25 -95.44 91.25 -94.76 91.25 C-94.57 93.05 -94.38 94.84 -94.2 96.63 C-93.69 99.46 -93.69 99.46 -91.76 101.25 C-84.39 100.29 -77.52 97.4 -71.66 92.84 C-69.49 90.44 -69.49 90.44 -69.82 87.68 C-70.29 86.35 -70.29 86.35 -70.76 85 C-71.06 84.07 -71.35 83.13 -71.66 82.17 C-72.43 80.13 -73.27 78.13 -74.18 76.15 C-75.39 73.38 -75.39 73.38 -75.76 70.25 C-71.13 72.99 -67 76.33 -62.78 79.67 C-57.23 84.48 -57.23 84.48 -50.45 86.32 C-40.69 83.9 -40.69 83.9 -33.76 77.25 C-33.84 76.12 -33.93 74.99 -34.01 73.82 C-33.93 72.97 -33.85 72.13 -33.76 71.25 C-32.25 71.92 -30.75 72.61 -29.28 73.36 C-21.49 76.13 -11.53 75.2 -4.1 71.71 C0.55 68.81 4.4 65.15 8.24 61.25 C9.14 60.37 9.14 60.37 10.06 59.46 C16.93 52.18 18.85 44.05 18.71 34.22 C18.26 24.02 14.58 15.41 7.24 8.25 C-12.08 -6.01 -30.26 0.2 -45.04 17.04 Z " fill="#EBE2DF" transform="translate(192.76171875,127.74609375)"/>
<path d="M0 0 C1.19 2.29 2.01 4.32 2.81 6.75 C3.06 7.46 3.3 8.17 3.56 8.9 C4.09 10.45 4.62 11.99 5.14 13.54 C6.02 16.06 6.97 18.54 7.94 21.02 C12.1 31.85 16.3 43.02 11.5 54.44 C7.46 61.09 1.29 65.57 -6 68 C-8.87 68.69 -8.87 68.69 -12 69 C-12.68 69.08 -13.36 69.15 -14.06 69.23 C-20.48 69.64 -24.91 67.89 -30 64 C-36.63 58.06 -39.14 48.76 -42.04 40.61 C-43.07 37.82 -44.19 35.06 -45.32 32.3 C-46.05 30.41 -46.77 28.52 -47.5 26.62 C-47.88 25.73 -48.26 24.83 -48.66 23.91 C-50.24 19.6 -50.24 19.6 -50 17 C-46.17 13.68 -41.94 13 -37 13 C-35.58 15.64 -35.58 15.64 -34.31 19.32 C-33.96 20.29 -33.96 20.29 -33.61 21.28 C-32.87 23.37 -32.15 25.47 -31.44 27.56 C-30.71 29.63 -29.99 31.7 -29.26 33.77 C-28.59 35.66 -27.94 37.55 -27.29 39.45 C-24.62 47.76 -24.62 47.76 -19 54 C-13.37 54.95 -8.82 54.17 -4 51 C-0.84 46.26 -0.97 41.51 -2 36 C-3.65 30.34 -5.81 24.86 -7.96 19.37 C-8.64 17.58 -9.32 15.79 -10 14 C-10.35 13.07 -10.71 12.14 -11.07 11.19 C-11.38 10.3 -11.7 9.4 -12.02 8.48 C-12.3 7.68 -12.59 6.89 -12.89 6.06 C-12.92 5.38 -12.96 4.7 -13 4 C-9.09 0.68 -5.02 0 0 0 Z " fill="#F4D633" transform="translate(83,165)"/>
<path d="M0 0 C16.4 -3.69 32.93 -4.65 49.7 -4.61 C51.81 -4.6 53.92 -4.61 56.03 -4.61 C94.16 -4.59 135.1 2.85 163.47 30.42 C205.39 73.47 201.88 161.9 201.81 217.23 C201.81 220.4 201.81 223.56 201.82 226.72 C201.78 371.03 201.78 371.03 163.47 410.37 C134.49 438.54 92.77 445.5 53.92 445.4 C51.81 445.4 49.7 445.4 47.59 445.41 C9.46 445.39 -31.48 437.94 -59.85 410.37 C-101.77 367.32 -98.26 278.89 -98.2 223.56 C-98.19 220.4 -98.2 217.23 -98.2 214.07 C-98.18 132.92 -98 25.81 0 0 Z M-65.38 50.27 C-68.32 55.71 -67.74 61.73 -67.7 67.75 C-67.7 69.12 -67.71 70.48 -67.72 71.85 C-67.74 75.59 -67.73 79.33 -67.71 83.08 C-67.71 87.12 -67.72 91.16 -67.73 95.2 C-67.75 103.11 -67.74 111.02 -67.73 118.93 C-67.72 125.36 -67.72 131.79 -67.73 138.22 C-67.73 139.14 -67.73 140.05 -67.73 141 C-67.73 142.85 -67.73 144.71 -67.73 146.57 C-67.74 164.01 -67.73 181.45 -67.71 198.88 C-67.69 213.84 -67.69 228.8 -67.71 243.76 C-67.73 261.13 -67.74 278.51 -67.73 295.88 C-67.73 297.73 -67.73 299.58 -67.73 301.44 C-67.73 302.35 -67.73 303.26 -67.73 304.2 C-67.72 310.62 -67.73 317.04 -67.74 323.46 C-67.75 331.29 -67.75 339.12 -67.72 346.95 C-67.71 350.94 -67.71 354.93 -67.72 358.93 C-67.73 362.58 -67.73 366.24 -67.71 369.9 C-67.7 371.84 -67.71 373.79 -67.73 375.73 C-67.65 383.76 -66.57 389.16 -61.55 395.46 C-53.53 401.52 -43.41 400.24 -33.85 400.17 C-31.78 400.18 -29.7 400.19 -27.63 400.2 C-22.01 400.23 -16.39 400.22 -10.77 400.2 C-4.88 400.19 1.01 400.2 6.9 400.21 C16.79 400.22 26.68 400.21 36.57 400.18 C47.99 400.15 59.41 400.16 70.84 400.19 C80.66 400.22 90.47 400.22 100.29 400.21 C106.15 400.2 112.01 400.19 117.87 400.21 C123.38 400.23 128.89 400.22 134.4 400.18 C136.42 400.18 138.43 400.18 140.45 400.19 C153.53 400.62 153.53 400.62 165.16 395.46 C171.09 388.02 171.39 381.26 171.33 371.93 C171.34 370.56 171.34 369.2 171.35 367.83 C171.37 364.09 171.37 360.35 171.36 356.62 C171.36 352.58 171.37 348.54 171.39 344.5 C171.41 336.6 171.42 328.7 171.41 320.79 C171.41 314.37 171.41 307.94 171.42 301.52 C171.42 300.6 171.42 299.69 171.42 298.74 C171.43 296.88 171.43 295.03 171.43 293.17 C171.45 275.74 171.45 258.32 171.44 240.89 C171.43 224.95 171.45 209.02 171.49 193.08 C171.53 176.71 171.54 160.34 171.54 143.97 C171.53 134.78 171.54 125.59 171.56 116.4 C171.59 108.58 171.59 100.76 171.57 92.94 C171.56 88.95 171.55 84.96 171.58 80.97 C171.6 77.32 171.59 73.66 171.56 70.01 C171.56 68.07 171.58 66.13 171.6 64.18 C171.51 56.47 170.43 50.96 164.81 45.4 C159.56 41.41 154.32 40.81 147.9 40.88 C147.03 40.87 146.17 40.86 145.28 40.85 C142.41 40.83 139.54 40.84 136.67 40.85 C134.61 40.84 132.54 40.83 130.48 40.82 C124.88 40.79 119.28 40.79 113.69 40.79 C109.01 40.8 104.33 40.79 99.66 40.78 C88.62 40.75 77.59 40.75 66.55 40.77 C55.17 40.78 43.8 40.75 32.42 40.71 C22.65 40.67 12.87 40.66 3.1 40.67 C-2.74 40.67 -8.57 40.67 -14.41 40.64 C-19.9 40.61 -25.38 40.62 -30.87 40.64 C-32.88 40.65 -34.89 40.64 -36.9 40.63 C-53.22 40.35 -53.22 40.35 -65.38 50.27 Z " fill="#9C9E9B" transform="translate(68.19175243377686,-40.39650321006775)"/>
<path d="M0 0 C4.59 2.45 7.27 5.83 10 10.19 C11.58 16.22 12.51 22.95 9.66 28.7 C6.84 32.61 3.65 35.45 -1 37 C-5.39 37.69 -9.3 37.92 -13.29 35.75 C-18.79 31.29 -22.2 25.93 -23.34 18.89 C-23.58 13.99 -22.39 10.23 -20 6 C-14.04 -0.16 -8.38 -1.27 0 0 Z " fill="#DE2B2B" transform="translate(184,144)"/>
<path d="M0 0 C3.78 1.84 7.11 3.73 9.84 6.98 C11.4 12.76 10.55 15.88 7.84 20.98 C7.51 20.98 7.18 20.98 6.84 20.98 C6.86 20.16 6.88 19.33 6.91 18.48 C6.89 17.66 6.87 16.83 6.84 15.98 C6.18 15.98 5.52 15.98 4.84 15.98 C4.84 15.32 4.84 14.66 4.84 13.98 C4.33 13.86 3.81 13.73 3.28 13.61 C0.84 12.98 0.84 12.98 -2.22 10.92 C-6.99 8.13 -11.79 8.09 -17.16 8.98 C-22.26 11.03 -25.92 13.85 -28.16 18.98 C-30.9 26.21 -28.82 32.68 -26.03 39.46 C-25.16 41.98 -25.16 41.98 -25.16 45.98 C-24.17 45.98 -23.18 45.98 -22.16 45.98 C-22.16 47.92 -22.16 47.92 -23.16 49.98 C-25.47 50.98 -25.47 50.98 -28.16 50.98 C-30.47 49.17 -30.47 49.17 -32.16 46.98 C-32.16 46.32 -32.16 45.66 -32.16 44.98 C-33.15 44.98 -34.14 44.98 -35.16 44.98 C-40.47 37.59 -40.15 27.62 -39.16 18.98 C-37.08 11.61 -32.54 6.15 -26.16 1.98 C-18.11 -2.11 -8.64 -2.79 0 0 Z " fill="#F5D62F" transform="translate(189.15625,134.01953125)"/>
<path d="M0 0 C1.12 1.73 1.12 1.73 2.01 4.2 C2.35 5.13 2.69 6.05 3.05 7.01 C3.58 8.55 3.58 8.55 4.12 10.12 C4.5 11.18 4.88 12.23 5.27 13.31 C6.54 16.87 7.77 20.43 9 24 C9.23 24.66 9.45 25.32 9.69 25.99 C11.33 30.76 12.95 35.53 14.56 40.31 C14.79 40.97 15.01 41.64 15.24 42.32 C15.88 44.21 16.5 46.1 17.13 47.99 C17.67 49.62 17.67 49.62 18.22 51.29 C19 54 19 54 19 57 C14.89 59.17 11.7 60.67 7 60 C4.58 58.47 2.42 56.95 0.19 55.19 C-1.14 54.18 -2.46 53.17 -3.79 52.17 C-4.48 51.65 -5.17 51.12 -5.87 50.59 C-9.39 47.96 -13 45.48 -16.62 43 C-17.29 42.54 -17.95 42.09 -18.63 41.62 C-20.41 40.4 -22.19 39.18 -24 38 C-24.93 37.34 -25.86 36.68 -26.82 36.01 C-27.54 35.67 -28.26 35.34 -29 35 C-28.7 37.4 -28.7 37.4 -27.34 40.59 C-27.11 41.2 -26.88 41.8 -26.65 42.43 C-25.91 44.42 -25.14 46.4 -24.38 48.38 C-23.63 50.32 -22.89 52.26 -22.17 54.21 C-21.49 56.01 -20.8 57.8 -20.11 59.59 C-18.97 63.1 -18.26 66.31 -18 70 C-20.02 71.56 -20.02 71.56 -22.81 72.44 C-23.73 72.75 -24.64 73.05 -25.58 73.37 C-28 74 -28 74 -30 74 C-30.8 72.36 -30.8 72.36 -31.64 69.87 C-31.99 68.87 -32.34 67.86 -32.69 66.82 C-32.9 66.23 -33.1 65.64 -33.3 65.03 C-34.4 61.82 -35.55 58.64 -36.68 55.45 C-38.03 51.64 -39.37 47.83 -40.71 44.02 C-41.41 42.03 -42.11 40.05 -42.81 38.07 C-43.83 35.18 -44.85 32.3 -45.86 29.41 C-46.33 28.08 -46.33 28.08 -46.82 26.73 C-47.25 25.49 -47.25 25.49 -47.69 24.23 C-48.07 23.14 -48.07 23.14 -48.46 22.04 C-49 20 -49 20 -49 16 C-47.43 14.95 -47.43 14.95 -45.31 14.25 C-44.63 14.01 -43.94 13.77 -43.24 13.52 C-40.54 12.89 -38.77 12.6 -36 13 C-33.5 14.59 -31.25 16.18 -28.94 18 C-27.6 19.02 -26.27 20.03 -24.93 21.04 C-24.27 21.54 -23.61 22.05 -22.93 22.56 C-19.32 25.25 -15.55 27.69 -11.78 30.15 C-9 32 -9 32 -6.94 33.84 C-4.88 35.78 -4.88 35.78 -2 37 C-2.81 32.02 -4.82 27.28 -6.56 22.56 C-7.33 20.43 -8.09 18.3 -8.84 16.17 C-9.32 14.83 -9.8 13.49 -10.3 12.16 C-11.49 8.85 -12 6.58 -12 3 C-10.39 1.95 -10.39 1.95 -8.25 1.25 C-7.55 1.01 -6.86 0.77 -6.14 0.52 C-4 0 -4 0 0 0 Z M-10 4 C-10.43 13.91 -4.3 25.86 -0.31 34.81 C1 38 1 38 1 41 C-1.5 39.54 -3.78 38 -6.12 36.31 C-6.85 35.8 -7.57 35.3 -8.31 34.77 C-10.55 33.19 -12.77 31.6 -15 30 C-16.31 29.07 -17.62 28.14 -18.93 27.21 C-28.28 20.56 -28.28 20.56 -30.79 18.6 C-34.32 15.82 -34.32 15.82 -38.58 14.7 C-39.32 14.84 -40.05 14.98 -40.81 15.12 C-41.56 15.25 -42.31 15.38 -43.08 15.51 C-45.07 15.95 -45.07 15.95 -47 17 C-46.59 23.45 -44.34 29.19 -42.14 35.21 C-40.4 40 -38.73 44.79 -37.24 49.66 C-36.43 52.28 -35.59 54.89 -34.74 57.5 C-34.33 58.79 -33.93 60.09 -33.55 61.4 C-31.92 67.01 -31.92 67.01 -29 72 C-26 72.45 -24.47 71.9 -21.77 70.55 C-21.18 70.04 -20.6 69.53 -20 69 C-19.58 65.61 -19.58 65.61 -21 62 C-21.54 60.27 -21.54 60.27 -22.09 58.5 C-22.51 57.34 -22.94 56.19 -23.38 55 C-23.82 53.78 -24.27 52.55 -24.74 51.29 C-25.64 48.94 -26.55 46.62 -27.56 44.31 C-28.04 43.22 -28.51 42.13 -29 41 C-29.54 39.93 -30.08 38.86 -30.63 37.75 C-33.27 32.03 -33.27 32.03 -33 30 C-28.1 32.36 -23.89 35.83 -19.56 39.09 C-15.2 42.34 -10.72 45.4 -6.25 48.5 C-4.57 49.68 -2.88 50.85 -1.2 52.03 C-0.49 52.53 0.23 53.03 0.96 53.55 C2.38 54.56 3.77 55.6 5.13 56.68 C6.9 58.18 6.9 58.18 9.07 58.11 C13.15 57.45 13.15 57.45 17 56 C16.59 51.34 15.14 47.02 13.62 42.62 C13.4 41.96 13.17 41.29 12.94 40.61 C11.62 36.72 10.23 32.86 8.75 29.02 C7.77 26.37 6.89 23.69 6 21 C4.44 16.28 2.79 11.63 1 7 C0.5 5.51 0.5 5.51 0 4 C-0.5 3.01 -0.5 3.01 -1 2 C-4.56 2 -6.83 2.34 -10 4 Z " fill="#E7E4C1" transform="translate(137,146)"/>
<path d="M0 0 C1.19 2.29 2.01 4.32 2.81 6.75 C3.06 7.46 3.3 8.17 3.56 8.9 C4.09 10.45 4.62 11.99 5.14 13.54 C6.02 16.06 6.97 18.54 7.94 21.02 C12.1 31.85 16.3 43.02 11.5 54.44 C7.46 61.09 1.29 65.57 -6 68 C-8.87 68.69 -8.87 68.69 -12 69 C-12.68 69.08 -13.36 69.15 -14.06 69.23 C-20.48 69.64 -24.91 67.89 -30 64 C-36.63 58.06 -39.14 48.76 -42.04 40.61 C-43.07 37.82 -44.19 35.06 -45.32 32.3 C-46.05 30.41 -46.77 28.52 -47.5 26.62 C-47.88 25.73 -48.26 24.83 -48.66 23.91 C-50.24 19.6 -50.24 19.6 -50 17 C-46.17 13.68 -41.94 13 -37 13 C-35.58 15.64 -35.58 15.64 -34.31 19.32 C-33.96 20.29 -33.96 20.29 -33.61 21.28 C-32.87 23.37 -32.15 25.47 -31.44 27.56 C-30.71 29.63 -29.99 31.7 -29.26 33.77 C-28.59 35.66 -27.94 37.55 -27.29 39.45 C-24.62 47.76 -24.62 47.76 -19 54 C-13.37 54.95 -8.82 54.17 -4 51 C-0.84 46.26 -0.97 41.51 -2 36 C-3.65 30.34 -5.81 24.86 -7.96 19.37 C-8.64 17.58 -9.32 15.79 -10 14 C-10.35 13.07 -10.71 12.14 -11.07 11.19 C-11.38 10.3 -11.7 9.4 -12.02 8.48 C-12.3 7.68 -12.59 6.89 -12.89 6.06 C-12.92 5.38 -12.96 4.7 -13 4 C-9.09 0.68 -5.02 0 0 0 Z M-10 5 C-10.05 6.88 -10.05 6.88 -9.41 8.97 C-9.2 9.78 -8.99 10.58 -8.77 11.41 C-7.46 15.8 -5.99 20.12 -4.44 24.44 C-4.12 25.33 -3.8 26.23 -3.48 27.15 C-1.92 31.65 -1.92 31.65 0 36 C0.4 40.81 0.61 45.39 -1.12 49.94 C-4.08 53.19 -6.74 55.64 -11.21 56.35 C-15.92 56.52 -19.31 56.16 -23 53 C-26.1 48.81 -27.94 44.87 -29.54 39.92 C-29.76 39.27 -29.97 38.62 -30.19 37.94 C-30.87 35.88 -31.53 33.82 -32.19 31.75 C-32.86 29.67 -33.54 27.59 -34.22 25.51 C-34.83 23.64 -35.43 21.76 -36.03 19.89 C-36.89 17.1 -36.89 17.1 -38 15 C-41.18 15.35 -43.97 15.99 -47 17 C-46.61 23.85 -44.1 30.17 -41.87 36.59 C-41.19 38.56 -40.52 40.53 -39.86 42.51 C-39.42 43.78 -38.98 45.05 -38.54 46.32 C-38.15 47.46 -37.76 48.59 -37.36 49.77 C-35.15 55.02 -32.26 59.12 -27.94 62.81 C-27.27 63.4 -26.59 63.98 -25.9 64.58 C-21.24 68.05 -15.53 67.4 -10 67 C-2.68 65.62 3.62 62.09 8.39 56.32 C12.14 50.18 12.26 42.92 11 36 C8.41 26.05 4.85 16.31 0.93 6.81 C0.63 6.09 0.33 5.37 0.02 4.62 C-0.31 4.09 -0.65 3.55 -1 3 C-5.14 2.07 -6.47 2.65 -10 5 Z " fill="#E0DFBC" transform="translate(83,165)"/>
<path d="M0 0 C4.59 2.45 7.27 5.83 10 10.19 C11.58 16.22 12.51 22.95 9.66 28.7 C6.84 32.61 3.65 35.45 -1 37 C-5.39 37.69 -9.3 37.92 -13.29 35.75 C-18.79 31.29 -22.2 25.93 -23.34 18.89 C-23.58 13.99 -22.39 10.23 -20 6 C-14.04 -0.16 -8.38 -1.27 0 0 Z M-17.94 8.25 C-20.83 12.1 -20.75 15.15 -20.55 19.88 C-19.47 25.97 -16.15 30.02 -11.69 34.12 C-7.71 35.42 -4.03 35 0 34 C3.25 32.28 3.25 32.28 4 29 C4.49 22.7 3.54 17.21 -0.43 12.2 C-3.95 8.53 -6.32 7.16 -11.38 6.69 C-14.97 6.81 -14.97 6.81 -17.94 8.25 Z " fill="#1C1D1C" transform="translate(184,144)"/>
<path d="M0 0 C1.93 2.9 3.14 5.65 4.41 8.87 C7.25 12.68 11.46 15.44 16.12 16.47 C18.41 16.64 20.65 16.67 22.95 16.64 C24.25 16.65 24.25 16.65 25.57 16.67 C28.46 16.69 31.34 16.68 34.23 16.66 C36.3 16.67 38.38 16.68 40.45 16.69 C46.08 16.72 51.7 16.72 57.32 16.7 C62.02 16.7 66.72 16.71 71.42 16.71 C82.51 16.73 93.6 16.73 104.69 16.71 C116.12 16.68 127.55 16.7 138.98 16.74 C148.8 16.77 158.62 16.78 168.44 16.77 C174.31 16.76 180.17 16.76 186.03 16.79 C191.54 16.81 197.06 16.8 202.57 16.77 C204.59 16.76 206.61 16.77 208.63 16.78 C221.95 17.23 221.95 17.23 233.58 11.56 C235.56 9.39 236.66 7.43 237.5 4.62 C237.99 3.08 238.49 1.54 239 0 C239.33 0 239.66 0 240 0 C241.31 5.81 242.75 12.42 240 18 C233.99 21.87 224.78 20.44 217.97 20.33 C215.6 20.35 213.24 20.39 210.88 20.42 C205.1 20.5 199.33 20.49 193.55 20.44 C188.86 20.39 184.17 20.39 179.48 20.41 C178.81 20.41 178.14 20.41 177.46 20.42 C176.1 20.42 174.75 20.43 173.4 20.43 C160.69 20.49 147.99 20.43 135.29 20.33 C124.37 20.25 113.46 20.26 102.54 20.35 C89.88 20.44 77.23 20.48 64.57 20.43 C63.22 20.42 61.87 20.41 60.52 20.41 C59.53 20.4 59.53 20.4 58.51 20.4 C53.82 20.38 49.14 20.41 44.45 20.45 C38.14 20.51 31.84 20.47 25.54 20.37 C23.21 20.34 20.89 20.35 18.57 20.39 C4.01 20.61 4.01 20.61 0 18 C-2.73 12.43 -1.57 5.76 0 0 Z " fill="#A4A5A4" transform="translate(0,342)"/>
<path d="M0 0 C6.93 5.36 10.94 13.29 12.9 21.68 C13.83 32.32 13.61 41.74 6.77 50.37 C4.55 52.89 2.27 55.3 -0.1 57.68 C-0.8 58.45 -1.49 59.21 -2.21 60 C-2.83 60.55 -3.46 61.11 -4.1 61.68 C-6.85 61.31 -6.85 61.31 -9.1 60.68 C-9.1 61.34 -9.1 62 -9.1 62.68 C-11.82 62.52 -14.41 62.25 -17.1 61.87 C-17.86 61.78 -18.63 61.68 -19.41 61.58 C-21.32 61.33 -23.21 61.01 -25.1 60.68 C-25.1 60.35 -25.1 60.02 -25.1 59.68 C-23.36 59.49 -21.62 59.3 -19.87 59.14 C-10.52 58.27 -3.48 56.5 3.21 49.5 C9.22 41.73 11.13 33.37 9.9 23.68 C7.6 14.02 2.93 6.33 -5.29 0.69 C-12.98 -3.59 -22.65 -3.78 -31.09 -1.51 C-38.1 1.65 -43.76 7.03 -47.23 13.91 C-49.02 18.77 -49.56 23.66 -49.89 28.81 C-49.96 29.43 -50.03 30.05 -50.1 30.68 C-50.43 30.68 -50.76 30.68 -51.1 30.68 C-54.13 17.63 -54.13 17.63 -52.21 12.12 C-50.67 10.02 -49.06 8.4 -47.1 6.68 C-46.4 5.99 -45.7 5.29 -44.97 4.57 C-31.64 -8.13 -15.84 -9.92 0 0 Z " fill="#1D1D1C" transform="translate(198.1015625,134.31640625)"/>
<path d="M0 0 C8.69 5.21 13.47 12.58 16.5 22.06 C17 23.55 17 23.55 17.5 25.06 C18.49 35.7 16.6 43.67 9.75 51.94 C4.22 57.78 -1.87 60.69 -9.86 61.34 C-20.25 61.61 -26.46 59.9 -34.25 52.88 C-41.76 44.91 -43.85 35.98 -43.7 25.38 C-43.11 15.59 -38.74 9.55 -31.5 3.06 C-22.84 -3.64 -9.95 -4.41 0 0 Z M-37.03 10.8 C-42.29 18.88 -42.3 26.8 -41.5 36.06 C-39.72 44.5 -34.47 51.36 -27.6 56.48 C-21.31 60.29 -14.7 60.8 -7.5 60.06 C0.77 57.99 7.66 53.77 12.11 46.4 C15.96 38.21 17.04 30.13 14.8 21.3 C11.48 12.14 6.27 5.42 -2.5 1.06 C-15.54 -3.28 -28.28 0.53 -37.03 10.8 Z " fill="#E7E5C2" transform="translate(191.5,132.9375)"/>
<path d="M0 0 C5.42 2.32 8.93 6.61 11.31 11.94 C12.28 16.23 12.58 20.06 11.31 24.31 C8.87 27.46 5.87 27.89 2.06 28.38 C-2.62 27.8 -5.32 25.83 -8.49 22.38 C-12.17 17.4 -12.77 12.78 -12.48 6.66 C-12 4 -12 4 -9.94 1.25 C-6.29 -0.3 -3.93 -0.49 0 0 Z M-9 6 C-10.17 10.95 -9.29 15.13 -6.69 19.44 C-4.9 22.1 -3.76 23.16 -1 25 C2.58 25.46 4.33 25.44 7.38 23.44 C9.68 19.98 9.62 18.11 9 14 C6.99 9.68 4.4 5.13 0 3 C-4.27 2.48 -6.33 2.56 -9 6 Z " fill="#E8E1DF" transform="translate(176,151)"/>
<path d="M0 0 C5.29 2.38 9.68 5.55 12 11 C12.59 12.33 12.59 12.33 13.19 13.69 C14.87 20.54 14.94 26.98 11.41 33.24 C8.39 37 2.96 40.57 -1.88 41.27 C-7.15 41.51 -10.78 40.8 -15.14 37.77 C-20.25 32.91 -23.78 26.27 -24.25 19.25 C-24.16 13.61 -22.31 9.52 -18.62 5.25 C-12.62 0.1 -7.93 -1.34 0 0 Z M-19.31 8.5 C-22.36 13.01 -22.65 17.63 -22 23 C-20.34 29.15 -17.24 33.76 -12.28 37.75 C-8.22 39.98 -4.47 39.82 0 39 C4.72 37.31 7.71 34.76 11 31 C13.03 24.91 13.11 17.54 10.44 11.62 C7.99 7.57 5.32 4.11 1 2 C-7.69 0.48 -13.29 1.99 -19.31 8.5 Z " fill="#E4E2BB" transform="translate(183,142)"/>
<path d="M0 0 C0.33 0.66 0.66 1.32 1 2 C-1.03 2.55 -3.07 3.04 -5.12 3.5 C-8.44 4.38 -8.44 4.38 -11 6 C-11.27 9.77 -9.56 12.64 -8 16 C-7.25 18.7 -7.25 18.7 -7 21 C-8.75 22.88 -8.75 22.88 -11 24 C-11.99 23.67 -12.98 23.34 -14 23 C-13.37 20.99 -12.71 18.99 -12 17 C-12.99 17.66 -13.98 18.32 -15 19 C-16.8 15.78 -17 13.74 -17 10 C-17.66 9.67 -18.32 9.34 -19 9 C-16.23 4.48 -13.27 2.9 -8.38 1.12 C-7.23 0.69 -6.08 0.26 -4.9 -0.18 C-2 -1 -2 -1 0 0 Z " fill="#2B2D2B" transform="translate(82,163)"/>
<path d="M0 0 C1.57 -0.06 1.57 -0.06 3.18 -0.11 C6.12 0.31 6.12 0.31 8.53 2.16 C10.12 4.31 10.12 4.31 9.75 7.12 C9.21 7.85 8.68 8.57 8.12 9.31 C6.12 9.03 4.12 8.68 2.12 8.31 C-1.2 8.32 -4.51 8.38 -7.84 8.53 C-9.8 8.57 -9.8 8.57 -12.88 8.31 C-12.88 7.32 -12.88 6.33 -12.88 5.31 C-8.45 1.35 -5.89 0.14 0 0 Z " fill="#070707" transform="translate(177.875,143.6875)"/>
<path d="M0 0 C0.99 0 1.98 0 3 0 C5.48 4.53 7 9.34 7 14.5 C6 17 6 17 4.19 19.12 C3.47 19.41 2.74 19.7 2 20 C-0.85 17.88 -1.87 16.38 -3 13 C-3.19 9.44 -3.19 9.44 -3 6 C-2.34 5.34 -1.68 4.68 -1 4 C-0.78 2.95 -0.78 2.95 -0.56 1.88 C-0.38 1.26 -0.19 0.64 0 0 Z " fill="#2B2C2A" transform="translate(37,200)"/>
<path d="M0 0 C5.57 -1.27 12.67 -2.64 18 0 C20.61 5.34 19.3 12.43 18 18 C17.05 16.8 17.05 16.8 16 14 C13.18 8.41 10.73 5.23 4.87 2.79 C3 2 3 2 0 0 Z " fill="#F2F4F2" transform="translate(222,0)"/>
<path d="M0 0 C1.59 2.39 2.55 4.28 3.62 6.88 C5.97 11.69 9.39 13.56 14 16 C14.99 16.66 15.98 17.32 17 18 C11.75 19.27 5.01 20.6 0 18 C-2.51 12.62 -1.22 5.59 0 0 Z " fill="#F4F5F4" transform="translate(0,342)"/>
<path d="M0 0 C5.06 -2.46 11.73 -1.22 17 0 C14 2 14 2 12.13 2.94 C6.53 5.9 4.4 9.21 1.91 14.99 C1.46 15.98 1.46 15.98 1 17 C0.67 17 0.34 17 0 17 C-1.11 11.08 -1.8 5.8 0 0 Z " fill="#F6F6F4" transform="translate(0,0)"/>
<path d="M0 0 C0.33 0 0.66 0 1 0 C3.19 13.07 3.19 13.07 1 18 C-4.43 19.91 -9.49 19.64 -15 18 C-13.7 16.55 -13.7 16.55 -11 15 C-5.09 11.57 -2.93 8.57 -0.73 2.01 C-0.49 1.35 -0.25 0.68 0 0 Z " fill="#F4F4F3" transform="translate(239,342)"/>
<path d="M0 0 C2.17 1.4 4.27 2.86 6.38 4.35 C7.11 4.85 7.84 5.36 8.6 5.87 C13.99 9.63 13.99 9.63 15.13 11.91 C14.14 12.24 13.15 12.57 12.13 12.91 C10.54 12 10.54 12 8.84 10.57 C8.2 10.06 7.57 9.56 6.92 9.04 C5.61 7.96 4.31 6.88 3.02 5.78 C-0.61 2.84 -0.61 2.84 -5.04 1.78 C-7.45 2.05 -7.45 2.05 -10.87 2.91 C-12.33 3.07 -12.33 3.07 -13.81 3.22 C-14.49 3.45 -15.17 3.68 -15.87 3.91 C-16.74 6.04 -16.74 6.04 -16.87 7.91 C-16.87 6.92 -16.87 5.93 -16.87 4.91 C-17.53 4.58 -18.19 4.25 -18.87 3.91 C-18.87 3.25 -18.87 2.59 -18.87 1.91 C-16.42 0.81 -16.42 0.81 -13.18 -0.28 C-11.6 -0.82 -11.6 -0.82 -9.99 -1.38 C-5.88 -2.31 -3.66 -2.13 0 0 Z " fill="#232322" transform="translate(103.871826171875,158.088623046875)"/>
</g></svg>
