<?xml version="1.0" encoding="UTF-8"?>
<svg xmlns="http://www.w3.org/2000/svg" viewBox="0 0 60 90" width="60" height="90">

      <rect
         width="60"
         height="90"
         rx="10"
         ry="10"
         x="0"
         y="0"
         id="rect2987-5"
         style="fill:#ffffff;fill-opacity:1;fill-rule:evenodd;stroke:#000000;stroke-width:0.5;stroke-miterlimit:4;stroke-dasharray:none" />
      <rect
         width="50"
         height="80"
         rx="5"
         ry="5"
         x="5"
         y="5"
         id="rect3757-6"
         style="fill:#00a651;fill-opacity:1;fill-rule:evenodd;stroke:none" />
      <path
         d="m 45 19.99998999999997 c -22.09139 0 -40 17.90861 -40 40 0 5.52285 4.47715 10 10 10 22.09139 0 40 -17.90861 40 -40 0 -5.52285 -4.47715 -10 -10 -10 z"
         id="path3773-0-4-8-4-6"
         style="fill:#ffffff;fill-opacity:1;fill-rule:evenodd;stroke:none" />
      <path
         d="m 28 29.99998999999997 -5 5 0 6 5 -5 0 24 5 0 0 -30 z"
         id="rect3921-6"
         style="fill:#00a651;fill-opacity:1;fill-rule:evenodd;stroke:none" />
      <path
         d="m 10 7.499989999999968 -2.5 2.5 0 3 2.5 -2.5 0 12 2.5 0 0 -15 z"
         id="rect3921-5-7"
         style="fill:#ffffff;fill-opacity:1;fill-rule:evenodd;stroke:none" />
      <path
         d="m 50 82.49998999999997 2.5 -2.5 0 -3 -2.5 2.5 0 -12 -2.5 0 0 15 z"
         id="rect3921-5-5-6"
         style="fill:#ffffff;fill-opacity:1;fill-rule:evenodd;stroke:none" />
    
</svg>