<?xml version="1.0" encoding="UTF-8"?>
<svg xmlns="http://www.w3.org/2000/svg" viewBox="0 0 60 90" width="60" height="90">

      <rect
         width="60"
         height="90"
         rx="10"
         ry="10"
         x="0"
         y="0"
         id="rect2987-8-5-6"
         style="fill:#ffffff;fill-opacity:1;fill-rule:evenodd;stroke:#000000;stroke-width:0.5;stroke-miterlimit:4;stroke-dasharray:none" />
      <rect
         width="50"
         height="80"
         rx="5"
         ry="5"
         x="5"
         y="5"
         id="rect3757-26-33-81"
         style="fill:#ed1c24;fill-opacity:1;fill-rule:evenodd;stroke:none" />
      <path
         d="m 45 19.99998999999997 c -22.09139 0 -40 17.90861 -40 40 0 5.52285 4.47715 10 10 10 22.09139 0 40 -17.90861 40 -40 0 -5.52285 -4.47715 -10 -10 -10 z"
         id="path3773-0-4-8-4-60-3-9"
         style="fill:#ffffff;fill-opacity:1;fill-rule:evenodd;stroke:none" />
      <path
         d="m 21 29.99998999999997 0 10 0 5 10 0 c 2.77 0 5 2.23 5 5 0 2.77 -2.23 5 -5 5 -2.77 0 -5 -2.23 -5 -5 l -5 0 c 0 5.54 4.46 10 10 10 5.54 0 10 -4.46 10 -10 0 -5.54 -4.46 -10 -10 -10 l -5 0 0 -5 5 0 9 0 0 -5 -9 0 -5 0 z"
         id="rect3163-6-0-0-2-7-1-2-19-4"
         style="fill:#ed1c24;fill-opacity:1;stroke:none" />
      <path
         d="m 7.5 7.499989999999968 0 5 0 2.5 5 0 c 1.385 0 2.5 1.115 2.5 2.5 0 1.385 -1.115 2.5 -2.5 2.5 -1.385 0 -2.5 -1.115 -2.5 -2.5 l -2.5 0 c 0 2.77 2.23 5 5 5 2.77 0 5 -2.23 5 -5 0 -2.77 -2.23 -5 -5 -5 l -2.5 0 0 -2.5 2.5 0 4.5 0 0 -2.5 -4.5 0 -2.5 0 z"
         id="rect3163-6-0-0-2-7-1-2-19-2-4"
         style="fill:#ffffff;fill-opacity:1;stroke:none" />
      <path
         d="m 52.5 82.49998999999997 0 -5 0 -2.5 -5 0 c -1.385 0 -2.5 -1.115 -2.5 -2.5 0 -1.385 1.115 -2.5 2.5 -2.5 1.385 0 2.5 1.115 2.5 2.5 l 2.5 0 c 0 -2.77 -2.23 -5 -5 -5 -2.77 0 -5 2.23 -5 5 0 2.77 2.23 5 5 5 l 2.5 0 0 2.5 -2.5 0 -4.5 0 0 2.5 4.5 0 2.5 0 z"
         id="rect3163-6-0-0-2-7-1-2-19-2-4-6"
         style="fill:#ffffff;fill-opacity:1;stroke:none" />
    
</svg>